<mxfile host="app.diagrams.net" modified="2022-02-04T14:22:20.504Z" agent="5.0 (Macintosh; Intel Mac OS X 10_15_7) AppleWebKit/537.36 (KHTML, like Gecko) Chrome/98.0.4758.80 Safari/537.36" etag="D5eIeMqWezmCvEeyS0zr" version="16.5.3" type="github">
  <diagram id="R2lEEEUBdFMjLlhIrx00" name="Page-1">
    <mxGraphModel dx="1135" dy="698" grid="1" gridSize="10" guides="1" tooltips="1" connect="1" arrows="1" fold="1" page="1" pageScale="1" pageWidth="291" pageHeight="413" background="#EEEEEE" math="0" shadow="0" extFonts="Permanent Marker^https://fonts.googleapis.com/css?family=Permanent+Marker">
      <root>
        <object label="" id="0">
          <mxCell />
        </object>
        <mxCell id="1" parent="0" />
        <mxCell id="C-vyLk0tnHw3VtMMgP7b-2" value="MemberTeam" style="shape=table;startSize=30;container=1;collapsible=1;childLayout=tableLayout;fixedRows=1;rowLines=0;fontStyle=1;align=center;resizeLast=1;fillColor=#F5AB50;strokeColor=#909090;fontColor=#1A1A1A;rounded=1;" parent="1" vertex="1">
          <mxGeometry x="1070" y="90" width="250" height="130" as="geometry" />
        </mxCell>
        <mxCell id="C-vyLk0tnHw3VtMMgP7b-3" value="" style="shape=partialRectangle;collapsible=0;dropTarget=0;pointerEvents=0;fillColor=none;points=[[0,0.5],[1,0.5]];portConstraint=eastwest;top=0;left=0;right=0;bottom=1;strokeColor=#909090;fontColor=#1A1A1A;rounded=1;" parent="C-vyLk0tnHw3VtMMgP7b-2" vertex="1">
          <mxGeometry y="30" width="250" height="30" as="geometry" />
        </mxCell>
        <mxCell id="C-vyLk0tnHw3VtMMgP7b-4" value="PK" style="shape=partialRectangle;overflow=hidden;connectable=0;fillColor=none;top=0;left=0;bottom=0;right=0;fontStyle=1;strokeColor=#909090;fontColor=#1A1A1A;rounded=1;" parent="C-vyLk0tnHw3VtMMgP7b-3" vertex="1">
          <mxGeometry width="30" height="30" as="geometry">
            <mxRectangle width="30" height="30" as="alternateBounds" />
          </mxGeometry>
        </mxCell>
        <mxCell id="C-vyLk0tnHw3VtMMgP7b-5" value="member_team_id Long NOT NULL " style="shape=partialRectangle;overflow=hidden;connectable=0;fillColor=none;top=0;left=0;bottom=0;right=0;align=left;spacingLeft=6;fontStyle=5;strokeColor=#909090;fontColor=#1A1A1A;rounded=1;" parent="C-vyLk0tnHw3VtMMgP7b-3" vertex="1">
          <mxGeometry x="30" width="220" height="30" as="geometry">
            <mxRectangle width="220" height="30" as="alternateBounds" />
          </mxGeometry>
        </mxCell>
        <mxCell id="C-vyLk0tnHw3VtMMgP7b-6" value="" style="shape=partialRectangle;collapsible=0;dropTarget=0;pointerEvents=0;fillColor=none;points=[[0,0.5],[1,0.5]];portConstraint=eastwest;top=0;left=0;right=0;bottom=0;strokeColor=#909090;fontColor=#1A1A1A;rounded=1;" parent="C-vyLk0tnHw3VtMMgP7b-2" vertex="1">
          <mxGeometry y="60" width="250" height="30" as="geometry" />
        </mxCell>
        <mxCell id="C-vyLk0tnHw3VtMMgP7b-7" value="FK" style="shape=partialRectangle;overflow=hidden;connectable=0;fillColor=none;top=0;left=0;bottom=0;right=0;strokeColor=#909090;fontColor=#1A1A1A;rounded=1;fontStyle=1" parent="C-vyLk0tnHw3VtMMgP7b-6" vertex="1">
          <mxGeometry width="30" height="30" as="geometry">
            <mxRectangle width="30" height="30" as="alternateBounds" />
          </mxGeometry>
        </mxCell>
        <mxCell id="C-vyLk0tnHw3VtMMgP7b-8" value="member_id Long NOT NULL" style="shape=partialRectangle;overflow=hidden;connectable=0;fillColor=none;top=0;left=0;bottom=0;right=0;align=left;spacingLeft=6;strokeColor=#909090;fontColor=#1A1A1A;rounded=1;" parent="C-vyLk0tnHw3VtMMgP7b-6" vertex="1">
          <mxGeometry x="30" width="220" height="30" as="geometry">
            <mxRectangle width="220" height="30" as="alternateBounds" />
          </mxGeometry>
        </mxCell>
        <mxCell id="C-vyLk0tnHw3VtMMgP7b-9" value="" style="shape=partialRectangle;collapsible=0;dropTarget=0;pointerEvents=0;fillColor=none;points=[[0,0.5],[1,0.5]];portConstraint=eastwest;top=0;left=0;right=0;bottom=0;strokeColor=#909090;fontColor=#1A1A1A;rounded=1;" parent="C-vyLk0tnHw3VtMMgP7b-2" vertex="1">
          <mxGeometry y="90" width="250" height="30" as="geometry" />
        </mxCell>
        <mxCell id="C-vyLk0tnHw3VtMMgP7b-10" value="FK" style="shape=partialRectangle;overflow=hidden;connectable=0;fillColor=none;top=0;left=0;bottom=0;right=0;strokeColor=#909090;fontColor=#1A1A1A;rounded=1;fontStyle=1" parent="C-vyLk0tnHw3VtMMgP7b-9" vertex="1">
          <mxGeometry width="30" height="30" as="geometry">
            <mxRectangle width="30" height="30" as="alternateBounds" />
          </mxGeometry>
        </mxCell>
        <mxCell id="C-vyLk0tnHw3VtMMgP7b-11" value="team_id Long NOT NULL" style="shape=partialRectangle;overflow=hidden;connectable=0;fillColor=none;top=0;left=0;bottom=0;right=0;align=left;spacingLeft=6;strokeColor=#909090;fontColor=#1A1A1A;rounded=1;" parent="C-vyLk0tnHw3VtMMgP7b-9" vertex="1">
          <mxGeometry x="30" width="220" height="30" as="geometry">
            <mxRectangle width="220" height="30" as="alternateBounds" />
          </mxGeometry>
        </mxCell>
        <mxCell id="C-vyLk0tnHw3VtMMgP7b-23" value="Member" style="shape=table;startSize=30;container=1;collapsible=1;childLayout=tableLayout;fixedRows=1;rowLines=0;fontStyle=1;align=center;resizeLast=1;fillColor=#F5AB50;strokeColor=#909090;fontColor=#1A1A1A;rounded=1;" parent="1" vertex="1">
          <mxGeometry x="530" y="120" width="330" height="220" as="geometry">
            <mxRectangle x="390" y="165" width="80" height="30" as="alternateBounds" />
          </mxGeometry>
        </mxCell>
        <mxCell id="C-vyLk0tnHw3VtMMgP7b-24" value="" style="shape=partialRectangle;collapsible=0;dropTarget=0;pointerEvents=0;fillColor=none;points=[[0,0.5],[1,0.5]];portConstraint=eastwest;top=0;left=0;right=0;bottom=1;strokeColor=#909090;fontColor=#1A1A1A;rounded=1;" parent="C-vyLk0tnHw3VtMMgP7b-23" vertex="1">
          <mxGeometry y="30" width="330" height="30" as="geometry" />
        </mxCell>
        <mxCell id="C-vyLk0tnHw3VtMMgP7b-25" value="PK" style="shape=partialRectangle;overflow=hidden;connectable=0;fillColor=none;top=0;left=0;bottom=0;right=0;fontStyle=1;strokeColor=#909090;fontColor=#1A1A1A;rounded=1;" parent="C-vyLk0tnHw3VtMMgP7b-24" vertex="1">
          <mxGeometry width="50" height="30" as="geometry">
            <mxRectangle width="50" height="30" as="alternateBounds" />
          </mxGeometry>
        </mxCell>
        <mxCell id="C-vyLk0tnHw3VtMMgP7b-26" value="member_id Long NOT NULL " style="shape=partialRectangle;overflow=hidden;connectable=0;fillColor=none;top=0;left=0;bottom=0;right=0;align=left;spacingLeft=6;fontStyle=5;strokeColor=#909090;fontColor=#1A1A1A;rounded=1;" parent="C-vyLk0tnHw3VtMMgP7b-24" vertex="1">
          <mxGeometry x="50" width="280" height="30" as="geometry">
            <mxRectangle width="280" height="30" as="alternateBounds" />
          </mxGeometry>
        </mxCell>
        <mxCell id="C-vyLk0tnHw3VtMMgP7b-27" value="" style="shape=partialRectangle;collapsible=0;dropTarget=0;pointerEvents=0;fillColor=none;points=[[0,0.5],[1,0.5]];portConstraint=eastwest;top=0;left=0;right=0;bottom=0;strokeColor=#909090;fontColor=#1A1A1A;rounded=1;" parent="C-vyLk0tnHw3VtMMgP7b-23" vertex="1">
          <mxGeometry y="60" width="330" height="25" as="geometry" />
        </mxCell>
        <mxCell id="C-vyLk0tnHw3VtMMgP7b-28" value="" style="shape=partialRectangle;overflow=hidden;connectable=0;fillColor=none;top=0;left=0;bottom=0;right=0;strokeColor=#909090;fontColor=#1A1A1A;rounded=1;" parent="C-vyLk0tnHw3VtMMgP7b-27" vertex="1">
          <mxGeometry width="50" height="25" as="geometry">
            <mxRectangle width="50" height="25" as="alternateBounds" />
          </mxGeometry>
        </mxCell>
        <mxCell id="C-vyLk0tnHw3VtMMgP7b-29" value="username varchar(50) NOT NULL" style="shape=partialRectangle;overflow=hidden;connectable=0;fillColor=none;top=0;left=0;bottom=0;right=0;align=left;spacingLeft=6;strokeColor=#909090;fontColor=#1A1A1A;rounded=1;" parent="C-vyLk0tnHw3VtMMgP7b-27" vertex="1">
          <mxGeometry x="50" width="280" height="25" as="geometry">
            <mxRectangle width="280" height="25" as="alternateBounds" />
          </mxGeometry>
        </mxCell>
        <mxCell id="mvUCAgtBvGVkwwr2Q1S8-31" value="" style="shape=partialRectangle;collapsible=0;dropTarget=0;pointerEvents=0;fillColor=none;points=[[0,0.5],[1,0.5]];portConstraint=eastwest;top=0;left=0;right=0;bottom=0;strokeColor=#909090;fontColor=#1A1A1A;rounded=1;" parent="C-vyLk0tnHw3VtMMgP7b-23" vertex="1">
          <mxGeometry y="85" width="330" height="25" as="geometry" />
        </mxCell>
        <mxCell id="mvUCAgtBvGVkwwr2Q1S8-32" value="" style="shape=partialRectangle;overflow=hidden;connectable=0;fillColor=none;top=0;left=0;bottom=0;right=0;strokeColor=#909090;fontColor=#1A1A1A;rounded=1;" parent="mvUCAgtBvGVkwwr2Q1S8-31" vertex="1">
          <mxGeometry width="50" height="25" as="geometry">
            <mxRectangle width="50" height="25" as="alternateBounds" />
          </mxGeometry>
        </mxCell>
        <mxCell id="mvUCAgtBvGVkwwr2Q1S8-33" value="credential varchar(50) NOT NULL" style="shape=partialRectangle;overflow=hidden;connectable=0;fillColor=none;top=0;left=0;bottom=0;right=0;align=left;spacingLeft=6;strokeColor=#909090;fontColor=#1A1A1A;rounded=1;" parent="mvUCAgtBvGVkwwr2Q1S8-31" vertex="1">
          <mxGeometry x="50" width="280" height="25" as="geometry">
            <mxRectangle width="280" height="25" as="alternateBounds" />
          </mxGeometry>
        </mxCell>
        <mxCell id="mvUCAgtBvGVkwwr2Q1S8-34" value="" style="shape=partialRectangle;collapsible=0;dropTarget=0;pointerEvents=0;fillColor=none;points=[[0,0.5],[1,0.5]];portConstraint=eastwest;top=0;left=0;right=0;bottom=0;strokeColor=#909090;fontColor=#1A1A1A;rounded=1;" parent="C-vyLk0tnHw3VtMMgP7b-23" vertex="1">
          <mxGeometry y="110" width="330" height="25" as="geometry" />
        </mxCell>
        <mxCell id="mvUCAgtBvGVkwwr2Q1S8-35" value="" style="shape=partialRectangle;overflow=hidden;connectable=0;fillColor=none;top=0;left=0;bottom=0;right=0;strokeColor=#909090;fontColor=#1A1A1A;rounded=1;" parent="mvUCAgtBvGVkwwr2Q1S8-34" vertex="1">
          <mxGeometry width="50" height="25" as="geometry">
            <mxRectangle width="50" height="25" as="alternateBounds" />
          </mxGeometry>
        </mxCell>
        <mxCell id="mvUCAgtBvGVkwwr2Q1S8-36" value="email varchar(50) NOT NULL" style="shape=partialRectangle;overflow=hidden;connectable=0;fillColor=none;top=0;left=0;bottom=0;right=0;align=left;spacingLeft=6;strokeColor=#909090;fontColor=#1A1A1A;rounded=1;" parent="mvUCAgtBvGVkwwr2Q1S8-34" vertex="1">
          <mxGeometry x="50" width="280" height="25" as="geometry">
            <mxRectangle width="280" height="25" as="alternateBounds" />
          </mxGeometry>
        </mxCell>
        <mxCell id="mvUCAgtBvGVkwwr2Q1S8-40" value="" style="shape=partialRectangle;collapsible=0;dropTarget=0;pointerEvents=0;fillColor=none;points=[[0,0.5],[1,0.5]];portConstraint=eastwest;top=0;left=0;right=0;bottom=0;strokeColor=#909090;fontColor=#1A1A1A;rounded=1;" parent="C-vyLk0tnHw3VtMMgP7b-23" vertex="1">
          <mxGeometry y="135" width="330" height="25" as="geometry" />
        </mxCell>
        <mxCell id="mvUCAgtBvGVkwwr2Q1S8-41" value="" style="shape=partialRectangle;overflow=hidden;connectable=0;fillColor=none;top=0;left=0;bottom=0;right=0;strokeColor=#909090;fontColor=#1A1A1A;rounded=1;" parent="mvUCAgtBvGVkwwr2Q1S8-40" vertex="1">
          <mxGeometry width="50" height="25" as="geometry">
            <mxRectangle width="50" height="25" as="alternateBounds" />
          </mxGeometry>
        </mxCell>
        <mxCell id="mvUCAgtBvGVkwwr2Q1S8-42" value="phone_number varchar(11) NOTNULL" style="shape=partialRectangle;overflow=hidden;connectable=0;fillColor=none;top=0;left=0;bottom=0;right=0;align=left;spacingLeft=6;strokeColor=#909090;fontColor=#1A1A1A;rounded=1;" parent="mvUCAgtBvGVkwwr2Q1S8-40" vertex="1">
          <mxGeometry x="50" width="280" height="25" as="geometry">
            <mxRectangle width="280" height="25" as="alternateBounds" />
          </mxGeometry>
        </mxCell>
        <mxCell id="mvUCAgtBvGVkwwr2Q1S8-37" value="" style="shape=partialRectangle;collapsible=0;dropTarget=0;pointerEvents=0;fillColor=none;points=[[0,0.5],[1,0.5]];portConstraint=eastwest;top=0;left=0;right=0;bottom=0;strokeColor=#909090;fontColor=#1A1A1A;rounded=1;" parent="C-vyLk0tnHw3VtMMgP7b-23" vertex="1">
          <mxGeometry y="160" width="330" height="25" as="geometry" />
        </mxCell>
        <mxCell id="mvUCAgtBvGVkwwr2Q1S8-38" value="" style="shape=partialRectangle;overflow=hidden;connectable=0;fillColor=none;top=0;left=0;bottom=0;right=0;strokeColor=#909090;fontColor=#1A1A1A;rounded=1;" parent="mvUCAgtBvGVkwwr2Q1S8-37" vertex="1">
          <mxGeometry width="50" height="25" as="geometry">
            <mxRectangle width="50" height="25" as="alternateBounds" />
          </mxGeometry>
        </mxCell>
        <mxCell id="mvUCAgtBvGVkwwr2Q1S8-39" value="address Address NOT NULL" style="shape=partialRectangle;overflow=hidden;connectable=0;fillColor=none;top=0;left=0;bottom=0;right=0;align=left;spacingLeft=6;strokeColor=#909090;fontColor=#1A1A1A;rounded=1;" parent="mvUCAgtBvGVkwwr2Q1S8-37" vertex="1">
          <mxGeometry x="50" width="280" height="25" as="geometry">
            <mxRectangle width="280" height="25" as="alternateBounds" />
          </mxGeometry>
        </mxCell>
        <mxCell id="mvUCAgtBvGVkwwr2Q1S8-43" value="" style="shape=partialRectangle;collapsible=0;dropTarget=0;pointerEvents=0;fillColor=none;points=[[0,0.5],[1,0.5]];portConstraint=eastwest;top=0;left=0;right=0;bottom=0;strokeColor=#909090;fontColor=#1A1A1A;rounded=1;" parent="C-vyLk0tnHw3VtMMgP7b-23" vertex="1">
          <mxGeometry y="185" width="330" height="25" as="geometry" />
        </mxCell>
        <mxCell id="mvUCAgtBvGVkwwr2Q1S8-44" value="" style="shape=partialRectangle;overflow=hidden;connectable=0;fillColor=none;top=0;left=0;bottom=0;right=0;strokeColor=#909090;fontColor=#1A1A1A;rounded=1;" parent="mvUCAgtBvGVkwwr2Q1S8-43" vertex="1">
          <mxGeometry width="50" height="25" as="geometry">
            <mxRectangle width="50" height="25" as="alternateBounds" />
          </mxGeometry>
        </mxCell>
        <mxCell id="mvUCAgtBvGVkwwr2Q1S8-45" value="join_date Date NOTNULL" style="shape=partialRectangle;overflow=hidden;connectable=0;fillColor=none;top=0;left=0;bottom=0;right=0;align=left;spacingLeft=6;strokeColor=#909090;fontColor=#1A1A1A;rounded=1;" parent="mvUCAgtBvGVkwwr2Q1S8-43" vertex="1">
          <mxGeometry x="50" width="280" height="25" as="geometry">
            <mxRectangle width="280" height="25" as="alternateBounds" />
          </mxGeometry>
        </mxCell>
        <mxCell id="C-vyLk0tnHw3VtMMgP7b-13" value="Team" style="shape=table;startSize=30;container=1;collapsible=1;childLayout=tableLayout;fixedRows=1;rowLines=0;fontStyle=1;align=center;resizeLast=1;fillColor=#F5AB50;strokeColor=#909090;fontColor=#1A1A1A;rounded=1;" parent="1" vertex="1">
          <mxGeometry x="1500" y="150" width="280" height="190" as="geometry" />
        </mxCell>
        <mxCell id="C-vyLk0tnHw3VtMMgP7b-14" value="" style="shape=partialRectangle;collapsible=0;dropTarget=0;pointerEvents=0;fillColor=none;points=[[0,0.5],[1,0.5]];portConstraint=eastwest;top=0;left=0;right=0;bottom=1;strokeColor=#909090;fontColor=#1A1A1A;rounded=1;" parent="C-vyLk0tnHw3VtMMgP7b-13" vertex="1">
          <mxGeometry y="30" width="280" height="30" as="geometry" />
        </mxCell>
        <mxCell id="C-vyLk0tnHw3VtMMgP7b-15" value="PK" style="shape=partialRectangle;overflow=hidden;connectable=0;fillColor=none;top=0;left=0;bottom=0;right=0;fontStyle=1;strokeColor=#909090;fontColor=#1A1A1A;rounded=1;" parent="C-vyLk0tnHw3VtMMgP7b-14" vertex="1">
          <mxGeometry width="40" height="30" as="geometry">
            <mxRectangle width="40" height="30" as="alternateBounds" />
          </mxGeometry>
        </mxCell>
        <mxCell id="C-vyLk0tnHw3VtMMgP7b-16" value="team_id Long NOT NULL " style="shape=partialRectangle;overflow=hidden;connectable=0;fillColor=none;top=0;left=0;bottom=0;right=0;align=left;spacingLeft=6;fontStyle=5;strokeColor=#909090;fontColor=#1A1A1A;rounded=1;" parent="C-vyLk0tnHw3VtMMgP7b-14" vertex="1">
          <mxGeometry x="40" width="240" height="30" as="geometry">
            <mxRectangle width="240" height="30" as="alternateBounds" />
          </mxGeometry>
        </mxCell>
        <mxCell id="C-vyLk0tnHw3VtMMgP7b-17" value="" style="shape=partialRectangle;collapsible=0;dropTarget=0;pointerEvents=0;fillColor=none;points=[[0,0.5],[1,0.5]];portConstraint=eastwest;top=0;left=0;right=0;bottom=0;strokeColor=#909090;fontColor=#1A1A1A;rounded=1;" parent="C-vyLk0tnHw3VtMMgP7b-13" vertex="1">
          <mxGeometry y="60" width="280" height="30" as="geometry" />
        </mxCell>
        <mxCell id="C-vyLk0tnHw3VtMMgP7b-18" value="" style="shape=partialRectangle;overflow=hidden;connectable=0;fillColor=none;top=0;left=0;bottom=0;right=0;strokeColor=#909090;fontColor=#1A1A1A;rounded=1;" parent="C-vyLk0tnHw3VtMMgP7b-17" vertex="1">
          <mxGeometry width="40" height="30" as="geometry">
            <mxRectangle width="40" height="30" as="alternateBounds" />
          </mxGeometry>
        </mxCell>
        <mxCell id="C-vyLk0tnHw3VtMMgP7b-19" value="name varchar(50) NOT NULL" style="shape=partialRectangle;overflow=hidden;connectable=0;fillColor=none;top=0;left=0;bottom=0;right=0;align=left;spacingLeft=6;strokeColor=#909090;fontColor=#1A1A1A;rounded=1;" parent="C-vyLk0tnHw3VtMMgP7b-17" vertex="1">
          <mxGeometry x="40" width="240" height="30" as="geometry">
            <mxRectangle width="240" height="30" as="alternateBounds" />
          </mxGeometry>
        </mxCell>
        <mxCell id="mvUCAgtBvGVkwwr2Q1S8-72" value="" style="shape=partialRectangle;collapsible=0;dropTarget=0;pointerEvents=0;fillColor=none;points=[[0,0.5],[1,0.5]];portConstraint=eastwest;top=0;left=0;right=0;bottom=0;strokeColor=#909090;fontColor=#1A1A1A;rounded=1;" parent="C-vyLk0tnHw3VtMMgP7b-13" vertex="1">
          <mxGeometry y="90" width="280" height="30" as="geometry" />
        </mxCell>
        <mxCell id="mvUCAgtBvGVkwwr2Q1S8-73" value="" style="shape=partialRectangle;overflow=hidden;connectable=0;fillColor=none;top=0;left=0;bottom=0;right=0;strokeColor=#909090;fontColor=#1A1A1A;rounded=1;" parent="mvUCAgtBvGVkwwr2Q1S8-72" vertex="1">
          <mxGeometry width="40" height="30" as="geometry">
            <mxRectangle width="40" height="30" as="alternateBounds" />
          </mxGeometry>
        </mxCell>
        <mxCell id="mvUCAgtBvGVkwwr2Q1S8-74" value="manager_id Long NOT NULL" style="shape=partialRectangle;overflow=hidden;connectable=0;fillColor=none;top=0;left=0;bottom=0;right=0;align=left;spacingLeft=6;strokeColor=#909090;fontColor=#1A1A1A;rounded=1;" parent="mvUCAgtBvGVkwwr2Q1S8-72" vertex="1">
          <mxGeometry x="40" width="240" height="30" as="geometry">
            <mxRectangle width="240" height="30" as="alternateBounds" />
          </mxGeometry>
        </mxCell>
        <mxCell id="C-vyLk0tnHw3VtMMgP7b-20" value="" style="shape=partialRectangle;collapsible=0;dropTarget=0;pointerEvents=0;fillColor=none;points=[[0,0.5],[1,0.5]];portConstraint=eastwest;top=0;left=0;right=0;bottom=0;strokeColor=#909090;fontColor=#1A1A1A;rounded=1;" parent="C-vyLk0tnHw3VtMMgP7b-13" vertex="1">
          <mxGeometry y="120" width="280" height="30" as="geometry" />
        </mxCell>
        <mxCell id="C-vyLk0tnHw3VtMMgP7b-21" value="" style="shape=partialRectangle;overflow=hidden;connectable=0;fillColor=none;top=0;left=0;bottom=0;right=0;strokeColor=#909090;fontColor=#1A1A1A;rounded=1;" parent="C-vyLk0tnHw3VtMMgP7b-20" vertex="1">
          <mxGeometry width="40" height="30" as="geometry">
            <mxRectangle width="40" height="30" as="alternateBounds" />
          </mxGeometry>
        </mxCell>
        <mxCell id="C-vyLk0tnHw3VtMMgP7b-22" value="generate_date Date NOT NULL" style="shape=partialRectangle;overflow=hidden;connectable=0;fillColor=none;top=0;left=0;bottom=0;right=0;align=left;spacingLeft=6;strokeColor=#909090;fontColor=#1A1A1A;rounded=1;" parent="C-vyLk0tnHw3VtMMgP7b-20" vertex="1">
          <mxGeometry x="40" width="240" height="30" as="geometry">
            <mxRectangle width="240" height="30" as="alternateBounds" />
          </mxGeometry>
        </mxCell>
        <mxCell id="mvUCAgtBvGVkwwr2Q1S8-234" value="" style="shape=partialRectangle;collapsible=0;dropTarget=0;pointerEvents=0;fillColor=none;points=[[0,0.5],[1,0.5]];portConstraint=eastwest;top=0;left=0;right=0;bottom=0;strokeColor=#909090;fontColor=#1A1A1A;rounded=1;" parent="C-vyLk0tnHw3VtMMgP7b-13" vertex="1">
          <mxGeometry y="150" width="280" height="30" as="geometry" />
        </mxCell>
        <mxCell id="mvUCAgtBvGVkwwr2Q1S8-235" value="" style="shape=partialRectangle;overflow=hidden;connectable=0;fillColor=none;top=0;left=0;bottom=0;right=0;strokeColor=#909090;fontColor=#1A1A1A;rounded=1;" parent="mvUCAgtBvGVkwwr2Q1S8-234" vertex="1">
          <mxGeometry width="40" height="30" as="geometry">
            <mxRectangle width="40" height="30" as="alternateBounds" />
          </mxGeometry>
        </mxCell>
        <mxCell id="mvUCAgtBvGVkwwr2Q1S8-236" value="last_modified_date Date NOT NULL" style="shape=partialRectangle;overflow=hidden;connectable=0;fillColor=none;top=0;left=0;bottom=0;right=0;align=left;spacingLeft=6;strokeColor=#909090;fontColor=#1A1A1A;rounded=1;" parent="mvUCAgtBvGVkwwr2Q1S8-234" vertex="1">
          <mxGeometry x="40" width="240" height="30" as="geometry">
            <mxRectangle width="240" height="30" as="alternateBounds" />
          </mxGeometry>
        </mxCell>
        <mxCell id="mvUCAgtBvGVkwwr2Q1S8-92" value="Image" style="shape=table;startSize=30;container=1;collapsible=1;childLayout=tableLayout;fixedRows=1;rowLines=0;fontStyle=1;align=center;resizeLast=1;fillColor=#F5AB50;strokeColor=#909090;fontColor=#1A1A1A;rounded=1;sketch=0;hachureGap=4;fontFamily=Helvetica;fontSize=11;" parent="1" vertex="1">
          <mxGeometry x="1055" y="450" width="280" height="310.00000000000045" as="geometry" />
        </mxCell>
        <mxCell id="mvUCAgtBvGVkwwr2Q1S8-93" value="" style="shape=partialRectangle;collapsible=0;dropTarget=0;pointerEvents=0;fillColor=none;points=[[0,0.5],[1,0.5]];portConstraint=eastwest;top=0;left=0;right=0;bottom=1;strokeColor=#909090;fontColor=#1A1A1A;rounded=1;" parent="mvUCAgtBvGVkwwr2Q1S8-92" vertex="1">
          <mxGeometry y="30" width="280" height="30" as="geometry" />
        </mxCell>
        <mxCell id="mvUCAgtBvGVkwwr2Q1S8-94" value="PK" style="shape=partialRectangle;overflow=hidden;connectable=0;fillColor=none;top=0;left=0;bottom=0;right=0;fontStyle=1;strokeColor=#909090;fontColor=#1A1A1A;rounded=1;" parent="mvUCAgtBvGVkwwr2Q1S8-93" vertex="1">
          <mxGeometry width="40" height="30" as="geometry">
            <mxRectangle width="40" height="30" as="alternateBounds" />
          </mxGeometry>
        </mxCell>
        <mxCell id="mvUCAgtBvGVkwwr2Q1S8-95" value="image_id Long NOT NULL " style="shape=partialRectangle;overflow=hidden;connectable=0;fillColor=none;top=0;left=0;bottom=0;right=0;align=left;spacingLeft=6;fontStyle=5;strokeColor=#909090;fontColor=#1A1A1A;rounded=1;" parent="mvUCAgtBvGVkwwr2Q1S8-93" vertex="1">
          <mxGeometry x="40" width="240" height="30" as="geometry">
            <mxRectangle width="240" height="30" as="alternateBounds" />
          </mxGeometry>
        </mxCell>
        <mxCell id="mvUCAgtBvGVkwwr2Q1S8-96" value="" style="shape=partialRectangle;collapsible=0;dropTarget=0;pointerEvents=0;fillColor=none;points=[[0,0.5],[1,0.5]];portConstraint=eastwest;top=0;left=0;right=0;bottom=0;strokeColor=#909090;fontColor=#1A1A1A;rounded=1;" parent="mvUCAgtBvGVkwwr2Q1S8-92" vertex="1">
          <mxGeometry y="60" width="280" height="30" as="geometry" />
        </mxCell>
        <mxCell id="mvUCAgtBvGVkwwr2Q1S8-97" value="FK" style="shape=partialRectangle;overflow=hidden;connectable=0;fillColor=none;top=0;left=0;bottom=0;right=0;strokeColor=#909090;fontColor=#1A1A1A;rounded=1;fontStyle=1" parent="mvUCAgtBvGVkwwr2Q1S8-96" vertex="1">
          <mxGeometry width="40" height="30" as="geometry">
            <mxRectangle width="40" height="30" as="alternateBounds" />
          </mxGeometry>
        </mxCell>
        <mxCell id="mvUCAgtBvGVkwwr2Q1S8-98" value="project_id varchar(50) NOT NULL" style="shape=partialRectangle;overflow=hidden;connectable=0;fillColor=none;top=0;left=0;bottom=0;right=0;align=left;spacingLeft=6;strokeColor=#909090;fontColor=#1A1A1A;rounded=1;" parent="mvUCAgtBvGVkwwr2Q1S8-96" vertex="1">
          <mxGeometry x="40" width="240" height="30" as="geometry">
            <mxRectangle width="240" height="30" as="alternateBounds" />
          </mxGeometry>
        </mxCell>
        <mxCell id="mvUCAgtBvGVkwwr2Q1S8-109" value="" style="shape=partialRectangle;collapsible=0;dropTarget=0;pointerEvents=0;fillColor=none;points=[[0,0.5],[1,0.5]];portConstraint=eastwest;top=0;left=0;right=0;bottom=0;strokeColor=#909090;fontColor=#1A1A1A;rounded=1;" parent="mvUCAgtBvGVkwwr2Q1S8-92" vertex="1">
          <mxGeometry y="90" width="280" height="30" as="geometry" />
        </mxCell>
        <mxCell id="mvUCAgtBvGVkwwr2Q1S8-110" value="" style="shape=partialRectangle;overflow=hidden;connectable=0;fillColor=none;top=0;left=0;bottom=0;right=0;strokeColor=#909090;fontColor=#1A1A1A;rounded=1;" parent="mvUCAgtBvGVkwwr2Q1S8-109" vertex="1">
          <mxGeometry width="40" height="30" as="geometry">
            <mxRectangle width="40" height="30" as="alternateBounds" />
          </mxGeometry>
        </mxCell>
        <mxCell id="mvUCAgtBvGVkwwr2Q1S8-111" value="name varchar(50) NOT NULL" style="shape=partialRectangle;overflow=hidden;connectable=0;fillColor=none;top=0;left=0;bottom=0;right=0;align=left;spacingLeft=6;strokeColor=#909090;fontColor=#1A1A1A;rounded=1;" parent="mvUCAgtBvGVkwwr2Q1S8-109" vertex="1">
          <mxGeometry x="40" width="240" height="30" as="geometry">
            <mxRectangle width="240" height="30" as="alternateBounds" />
          </mxGeometry>
        </mxCell>
        <mxCell id="mvUCAgtBvGVkwwr2Q1S8-113" value="" style="shape=partialRectangle;collapsible=0;dropTarget=0;pointerEvents=0;fillColor=none;points=[[0,0.5],[1,0.5]];portConstraint=eastwest;top=0;left=0;right=0;bottom=0;strokeColor=#909090;fontColor=#1A1A1A;rounded=1;" parent="mvUCAgtBvGVkwwr2Q1S8-92" vertex="1">
          <mxGeometry y="120" width="280" height="30" as="geometry" />
        </mxCell>
        <mxCell id="mvUCAgtBvGVkwwr2Q1S8-114" value="" style="shape=partialRectangle;overflow=hidden;connectable=0;fillColor=none;top=0;left=0;bottom=0;right=0;strokeColor=#909090;fontColor=#1A1A1A;rounded=1;" parent="mvUCAgtBvGVkwwr2Q1S8-113" vertex="1">
          <mxGeometry width="40" height="30" as="geometry">
            <mxRectangle width="40" height="30" as="alternateBounds" />
          </mxGeometry>
        </mxCell>
        <mxCell id="mvUCAgtBvGVkwwr2Q1S8-115" value="image BLOP NOT NULL" style="shape=partialRectangle;overflow=hidden;connectable=0;fillColor=none;top=0;left=0;bottom=0;right=0;align=left;spacingLeft=6;strokeColor=#909090;fontColor=#1A1A1A;rounded=1;" parent="mvUCAgtBvGVkwwr2Q1S8-113" vertex="1">
          <mxGeometry x="40" width="240" height="30" as="geometry">
            <mxRectangle width="240" height="30" as="alternateBounds" />
          </mxGeometry>
        </mxCell>
        <mxCell id="mvUCAgtBvGVkwwr2Q1S8-225" value="" style="shape=partialRectangle;collapsible=0;dropTarget=0;pointerEvents=0;fillColor=none;points=[[0,0.5],[1,0.5]];portConstraint=eastwest;top=0;left=0;right=0;bottom=0;strokeColor=#909090;fontColor=#1A1A1A;rounded=1;" parent="mvUCAgtBvGVkwwr2Q1S8-92" vertex="1">
          <mxGeometry y="150" width="280" height="30" as="geometry" />
        </mxCell>
        <mxCell id="mvUCAgtBvGVkwwr2Q1S8-226" value="" style="shape=partialRectangle;overflow=hidden;connectable=0;fillColor=none;top=0;left=0;bottom=0;right=0;strokeColor=#909090;fontColor=#1A1A1A;rounded=1;" parent="mvUCAgtBvGVkwwr2Q1S8-225" vertex="1">
          <mxGeometry width="40" height="30" as="geometry">
            <mxRectangle width="40" height="30" as="alternateBounds" />
          </mxGeometry>
        </mxCell>
        <mxCell id="mvUCAgtBvGVkwwr2Q1S8-227" value="status Enum NOT NULL" style="shape=partialRectangle;overflow=hidden;connectable=0;fillColor=none;top=0;left=0;bottom=0;right=0;align=left;spacingLeft=6;strokeColor=#909090;fontColor=#1A1A1A;rounded=1;" parent="mvUCAgtBvGVkwwr2Q1S8-225" vertex="1">
          <mxGeometry x="40" width="240" height="30" as="geometry">
            <mxRectangle width="240" height="30" as="alternateBounds" />
          </mxGeometry>
        </mxCell>
        <mxCell id="mvUCAgtBvGVkwwr2Q1S8-99" value="" style="shape=partialRectangle;collapsible=0;dropTarget=0;pointerEvents=0;fillColor=none;points=[[0,0.5],[1,0.5]];portConstraint=eastwest;top=0;left=0;right=0;bottom=0;strokeColor=#909090;fontColor=#1A1A1A;rounded=1;" parent="mvUCAgtBvGVkwwr2Q1S8-92" vertex="1">
          <mxGeometry y="180" width="280" height="30" as="geometry" />
        </mxCell>
        <mxCell id="mvUCAgtBvGVkwwr2Q1S8-100" value="" style="shape=partialRectangle;overflow=hidden;connectable=0;fillColor=none;top=0;left=0;bottom=0;right=0;strokeColor=#909090;fontColor=#1A1A1A;rounded=1;" parent="mvUCAgtBvGVkwwr2Q1S8-99" vertex="1">
          <mxGeometry width="40" height="30" as="geometry">
            <mxRectangle width="40" height="30" as="alternateBounds" />
          </mxGeometry>
        </mxCell>
        <mxCell id="mvUCAgtBvGVkwwr2Q1S8-101" value="create_user_id Long NOT NULL" style="shape=partialRectangle;overflow=hidden;connectable=0;fillColor=none;top=0;left=0;bottom=0;right=0;align=left;spacingLeft=6;strokeColor=#909090;fontColor=#1A1A1A;rounded=1;" parent="mvUCAgtBvGVkwwr2Q1S8-99" vertex="1">
          <mxGeometry x="40" width="240" height="30" as="geometry">
            <mxRectangle width="240" height="30" as="alternateBounds" />
          </mxGeometry>
        </mxCell>
        <mxCell id="mvUCAgtBvGVkwwr2Q1S8-150" value="" style="shape=partialRectangle;collapsible=0;dropTarget=0;pointerEvents=0;fillColor=none;points=[[0,0.5],[1,0.5]];portConstraint=eastwest;top=0;left=0;right=0;bottom=0;strokeColor=#909090;fontColor=#1A1A1A;rounded=1;" parent="mvUCAgtBvGVkwwr2Q1S8-92" vertex="1">
          <mxGeometry y="210" width="280" height="30" as="geometry" />
        </mxCell>
        <mxCell id="mvUCAgtBvGVkwwr2Q1S8-151" value="" style="shape=partialRectangle;overflow=hidden;connectable=0;fillColor=none;top=0;left=0;bottom=0;right=0;strokeColor=#909090;fontColor=#1A1A1A;rounded=1;" parent="mvUCAgtBvGVkwwr2Q1S8-150" vertex="1">
          <mxGeometry width="40" height="30" as="geometry">
            <mxRectangle width="40" height="30" as="alternateBounds" />
          </mxGeometry>
        </mxCell>
        <mxCell id="mvUCAgtBvGVkwwr2Q1S8-152" value="status Enum NOT NULL" style="shape=partialRectangle;overflow=hidden;connectable=0;fillColor=none;top=0;left=0;bottom=0;right=0;align=left;spacingLeft=6;strokeColor=#909090;fontColor=#1A1A1A;rounded=1;" parent="mvUCAgtBvGVkwwr2Q1S8-150" vertex="1">
          <mxGeometry x="40" width="240" height="30" as="geometry">
            <mxRectangle width="240" height="30" as="alternateBounds" />
          </mxGeometry>
        </mxCell>
        <mxCell id="mvUCAgtBvGVkwwr2Q1S8-105" value="" style="shape=partialRectangle;collapsible=0;dropTarget=0;pointerEvents=0;fillColor=none;points=[[0,0.5],[1,0.5]];portConstraint=eastwest;top=0;left=0;right=0;bottom=0;strokeColor=#909090;fontColor=#1A1A1A;rounded=1;" parent="mvUCAgtBvGVkwwr2Q1S8-92" vertex="1">
          <mxGeometry y="240" width="280" height="30" as="geometry" />
        </mxCell>
        <mxCell id="mvUCAgtBvGVkwwr2Q1S8-106" value="" style="shape=partialRectangle;overflow=hidden;connectable=0;fillColor=none;top=0;left=0;bottom=0;right=0;strokeColor=#909090;fontColor=#1A1A1A;rounded=1;" parent="mvUCAgtBvGVkwwr2Q1S8-105" vertex="1">
          <mxGeometry width="40" height="30" as="geometry">
            <mxRectangle width="40" height="30" as="alternateBounds" />
          </mxGeometry>
        </mxCell>
        <mxCell id="mvUCAgtBvGVkwwr2Q1S8-107" value="generate_date Date NOT NULL" style="shape=partialRectangle;overflow=hidden;connectable=0;fillColor=none;top=0;left=0;bottom=0;right=0;align=left;spacingLeft=6;strokeColor=#909090;fontColor=#1A1A1A;rounded=1;" parent="mvUCAgtBvGVkwwr2Q1S8-105" vertex="1">
          <mxGeometry x="40" width="240" height="30" as="geometry">
            <mxRectangle width="240" height="30" as="alternateBounds" />
          </mxGeometry>
        </mxCell>
        <mxCell id="mvUCAgtBvGVkwwr2Q1S8-102" value="" style="shape=partialRectangle;collapsible=0;dropTarget=0;pointerEvents=0;fillColor=none;points=[[0,0.5],[1,0.5]];portConstraint=eastwest;top=0;left=0;right=0;bottom=0;strokeColor=#909090;fontColor=#1A1A1A;rounded=1;" parent="mvUCAgtBvGVkwwr2Q1S8-92" vertex="1">
          <mxGeometry y="270" width="280" height="30" as="geometry" />
        </mxCell>
        <mxCell id="mvUCAgtBvGVkwwr2Q1S8-103" value="" style="shape=partialRectangle;overflow=hidden;connectable=0;fillColor=none;top=0;left=0;bottom=0;right=0;strokeColor=#909090;fontColor=#1A1A1A;rounded=1;" parent="mvUCAgtBvGVkwwr2Q1S8-102" vertex="1">
          <mxGeometry width="40" height="30" as="geometry">
            <mxRectangle width="40" height="30" as="alternateBounds" />
          </mxGeometry>
        </mxCell>
        <mxCell id="mvUCAgtBvGVkwwr2Q1S8-104" value="last_modified_date Date NOT NULL" style="shape=partialRectangle;overflow=hidden;connectable=0;fillColor=none;top=0;left=0;bottom=0;right=0;align=left;spacingLeft=6;strokeColor=#909090;fontColor=#1A1A1A;rounded=1;" parent="mvUCAgtBvGVkwwr2Q1S8-102" vertex="1">
          <mxGeometry x="40" width="240" height="30" as="geometry">
            <mxRectangle width="240" height="30" as="alternateBounds" />
          </mxGeometry>
        </mxCell>
        <mxCell id="mvUCAgtBvGVkwwr2Q1S8-123" value="" style="edgeStyle=entityRelationEdgeStyle;fontSize=12;html=1;endArrow=ERzeroToMany;startArrow=ERmandOne;rounded=1;labelBackgroundColor=#EEEEEE;fontFamily=Helvetica;fontColor=#1A1A1A;strokeColor=#182E3E;elbow=vertical;exitX=1;exitY=0.5;exitDx=0;exitDy=0;entryX=0;entryY=0.5;entryDx=0;entryDy=0;" parent="1" source="C-vyLk0tnHw3VtMMgP7b-24" target="C-vyLk0tnHw3VtMMgP7b-6" edge="1">
          <mxGeometry width="100" height="100" relative="1" as="geometry">
            <mxPoint x="1020" y="440" as="sourcePoint" />
            <mxPoint x="1030" y="200" as="targetPoint" />
          </mxGeometry>
        </mxCell>
        <mxCell id="mvUCAgtBvGVkwwr2Q1S8-125" value="Annotation" style="shape=table;startSize=30;container=1;collapsible=1;childLayout=tableLayout;fixedRows=1;rowLines=0;fontStyle=1;align=center;resizeLast=1;fillColor=#F5AB50;strokeColor=#909090;fontColor=#1A1A1A;rounded=1;sketch=0;hachureGap=4;fontFamily=Helvetica;fontSize=11;" parent="1" vertex="1">
          <mxGeometry x="630" y="420" width="280" height="250.0000000000009" as="geometry" />
        </mxCell>
        <mxCell id="mvUCAgtBvGVkwwr2Q1S8-126" value="" style="shape=partialRectangle;collapsible=0;dropTarget=0;pointerEvents=0;fillColor=none;points=[[0,0.5],[1,0.5]];portConstraint=eastwest;top=0;left=0;right=0;bottom=1;strokeColor=#909090;fontColor=#1A1A1A;rounded=1;" parent="mvUCAgtBvGVkwwr2Q1S8-125" vertex="1">
          <mxGeometry y="30" width="280" height="30" as="geometry" />
        </mxCell>
        <mxCell id="mvUCAgtBvGVkwwr2Q1S8-127" value="PK" style="shape=partialRectangle;overflow=hidden;connectable=0;fillColor=none;top=0;left=0;bottom=0;right=0;fontStyle=1;strokeColor=#909090;fontColor=#1A1A1A;rounded=1;" parent="mvUCAgtBvGVkwwr2Q1S8-126" vertex="1">
          <mxGeometry width="40" height="30" as="geometry">
            <mxRectangle width="40" height="30" as="alternateBounds" />
          </mxGeometry>
        </mxCell>
        <mxCell id="mvUCAgtBvGVkwwr2Q1S8-128" value="annotation_id Long NOT NULL " style="shape=partialRectangle;overflow=hidden;connectable=0;fillColor=none;top=0;left=0;bottom=0;right=0;align=left;spacingLeft=6;fontStyle=5;strokeColor=#909090;fontColor=#1A1A1A;rounded=1;" parent="mvUCAgtBvGVkwwr2Q1S8-126" vertex="1">
          <mxGeometry x="40" width="240" height="30" as="geometry">
            <mxRectangle width="240" height="30" as="alternateBounds" />
          </mxGeometry>
        </mxCell>
        <mxCell id="mvUCAgtBvGVkwwr2Q1S8-129" value="" style="shape=partialRectangle;collapsible=0;dropTarget=0;pointerEvents=0;fillColor=none;points=[[0,0.5],[1,0.5]];portConstraint=eastwest;top=0;left=0;right=0;bottom=0;strokeColor=#909090;fontColor=#1A1A1A;rounded=1;" parent="mvUCAgtBvGVkwwr2Q1S8-125" vertex="1">
          <mxGeometry y="60" width="280" height="30" as="geometry" />
        </mxCell>
        <mxCell id="mvUCAgtBvGVkwwr2Q1S8-130" value="FK" style="shape=partialRectangle;overflow=hidden;connectable=0;fillColor=none;top=0;left=0;bottom=0;right=0;strokeColor=#909090;fontColor=#1A1A1A;rounded=1;fontStyle=1" parent="mvUCAgtBvGVkwwr2Q1S8-129" vertex="1">
          <mxGeometry width="40" height="30" as="geometry">
            <mxRectangle width="40" height="30" as="alternateBounds" />
          </mxGeometry>
        </mxCell>
        <mxCell id="mvUCAgtBvGVkwwr2Q1S8-131" value="image_id Long NOT NULL" style="shape=partialRectangle;overflow=hidden;connectable=0;fillColor=none;top=0;left=0;bottom=0;right=0;align=left;spacingLeft=6;strokeColor=#909090;fontColor=#1A1A1A;rounded=1;" parent="mvUCAgtBvGVkwwr2Q1S8-129" vertex="1">
          <mxGeometry x="40" width="240" height="30" as="geometry">
            <mxRectangle width="240" height="30" as="alternateBounds" />
          </mxGeometry>
        </mxCell>
        <mxCell id="mvUCAgtBvGVkwwr2Q1S8-132" value="" style="shape=partialRectangle;collapsible=0;dropTarget=0;pointerEvents=0;fillColor=none;points=[[0,0.5],[1,0.5]];portConstraint=eastwest;top=0;left=0;right=0;bottom=0;strokeColor=#909090;fontColor=#1A1A1A;rounded=1;" parent="mvUCAgtBvGVkwwr2Q1S8-125" vertex="1">
          <mxGeometry y="90" width="280" height="30" as="geometry" />
        </mxCell>
        <mxCell id="mvUCAgtBvGVkwwr2Q1S8-133" value="FK" style="shape=partialRectangle;overflow=hidden;connectable=0;fillColor=none;top=0;left=0;bottom=0;right=0;strokeColor=#909090;fontColor=#1A1A1A;rounded=1;fontStyle=1" parent="mvUCAgtBvGVkwwr2Q1S8-132" vertex="1">
          <mxGeometry width="40" height="30" as="geometry">
            <mxRectangle width="40" height="30" as="alternateBounds" />
          </mxGeometry>
        </mxCell>
        <mxCell id="mvUCAgtBvGVkwwr2Q1S8-134" value="member_id Long NOT NULL" style="shape=partialRectangle;overflow=hidden;connectable=0;fillColor=none;top=0;left=0;bottom=0;right=0;align=left;spacingLeft=6;strokeColor=#909090;fontColor=#1A1A1A;rounded=1;" parent="mvUCAgtBvGVkwwr2Q1S8-132" vertex="1">
          <mxGeometry x="40" width="240" height="30" as="geometry">
            <mxRectangle width="240" height="30" as="alternateBounds" />
          </mxGeometry>
        </mxCell>
        <mxCell id="mvUCAgtBvGVkwwr2Q1S8-153" value="" style="shape=partialRectangle;collapsible=0;dropTarget=0;pointerEvents=0;fillColor=none;points=[[0,0.5],[1,0.5]];portConstraint=eastwest;top=0;left=0;right=0;bottom=0;strokeColor=#909090;fontColor=#1A1A1A;rounded=1;" parent="mvUCAgtBvGVkwwr2Q1S8-125" vertex="1">
          <mxGeometry y="120" width="280" height="30" as="geometry" />
        </mxCell>
        <mxCell id="mvUCAgtBvGVkwwr2Q1S8-154" value="" style="shape=partialRectangle;overflow=hidden;connectable=0;fillColor=none;top=0;left=0;bottom=0;right=0;strokeColor=#909090;fontColor=#1A1A1A;rounded=1;" parent="mvUCAgtBvGVkwwr2Q1S8-153" vertex="1">
          <mxGeometry width="40" height="30" as="geometry">
            <mxRectangle width="40" height="30" as="alternateBounds" />
          </mxGeometry>
        </mxCell>
        <mxCell id="mvUCAgtBvGVkwwr2Q1S8-155" value="generate_date Date NOT NULL" style="shape=partialRectangle;overflow=hidden;connectable=0;fillColor=none;top=0;left=0;bottom=0;right=0;align=left;spacingLeft=6;strokeColor=#909090;fontColor=#1A1A1A;rounded=1;" parent="mvUCAgtBvGVkwwr2Q1S8-153" vertex="1">
          <mxGeometry x="40" width="240" height="30" as="geometry">
            <mxRectangle width="240" height="30" as="alternateBounds" />
          </mxGeometry>
        </mxCell>
        <mxCell id="mvUCAgtBvGVkwwr2Q1S8-156" value="" style="shape=partialRectangle;collapsible=0;dropTarget=0;pointerEvents=0;fillColor=none;points=[[0,0.5],[1,0.5]];portConstraint=eastwest;top=0;left=0;right=0;bottom=0;strokeColor=#909090;fontColor=#1A1A1A;rounded=1;" parent="mvUCAgtBvGVkwwr2Q1S8-125" vertex="1">
          <mxGeometry y="150" width="280" height="30" as="geometry" />
        </mxCell>
        <mxCell id="mvUCAgtBvGVkwwr2Q1S8-157" value="" style="shape=partialRectangle;overflow=hidden;connectable=0;fillColor=none;top=0;left=0;bottom=0;right=0;strokeColor=#909090;fontColor=#1A1A1A;rounded=1;" parent="mvUCAgtBvGVkwwr2Q1S8-156" vertex="1">
          <mxGeometry width="40" height="30" as="geometry">
            <mxRectangle width="40" height="30" as="alternateBounds" />
          </mxGeometry>
        </mxCell>
        <mxCell id="mvUCAgtBvGVkwwr2Q1S8-158" value="last_modified_date Date NOT NULL" style="shape=partialRectangle;overflow=hidden;connectable=0;fillColor=none;top=0;left=0;bottom=0;right=0;align=left;spacingLeft=6;strokeColor=#909090;fontColor=#1A1A1A;rounded=1;" parent="mvUCAgtBvGVkwwr2Q1S8-156" vertex="1">
          <mxGeometry x="40" width="240" height="30" as="geometry">
            <mxRectangle width="240" height="30" as="alternateBounds" />
          </mxGeometry>
        </mxCell>
        <mxCell id="mvUCAgtBvGVkwwr2Q1S8-189" value="" style="shape=partialRectangle;collapsible=0;dropTarget=0;pointerEvents=0;fillColor=none;points=[[0,0.5],[1,0.5]];portConstraint=eastwest;top=0;left=0;right=0;bottom=0;strokeColor=#909090;fontColor=#1A1A1A;rounded=1;" parent="mvUCAgtBvGVkwwr2Q1S8-125" vertex="1">
          <mxGeometry y="180" width="280" height="30" as="geometry" />
        </mxCell>
        <mxCell id="mvUCAgtBvGVkwwr2Q1S8-190" value="" style="shape=partialRectangle;overflow=hidden;connectable=0;fillColor=none;top=0;left=0;bottom=0;right=0;strokeColor=#909090;fontColor=#1A1A1A;rounded=1;" parent="mvUCAgtBvGVkwwr2Q1S8-189" vertex="1">
          <mxGeometry width="40" height="30" as="geometry">
            <mxRectangle width="40" height="30" as="alternateBounds" />
          </mxGeometry>
        </mxCell>
        <mxCell id="mvUCAgtBvGVkwwr2Q1S8-191" value="comment Enum NOT NULL" style="shape=partialRectangle;overflow=hidden;connectable=0;fillColor=none;top=0;left=0;bottom=0;right=0;align=left;spacingLeft=6;strokeColor=#909090;fontColor=#1A1A1A;rounded=1;" parent="mvUCAgtBvGVkwwr2Q1S8-189" vertex="1">
          <mxGeometry x="40" width="240" height="30" as="geometry">
            <mxRectangle width="240" height="30" as="alternateBounds" />
          </mxGeometry>
        </mxCell>
        <mxCell id="mvUCAgtBvGVkwwr2Q1S8-186" value="" style="shape=partialRectangle;collapsible=0;dropTarget=0;pointerEvents=0;fillColor=none;points=[[0,0.5],[1,0.5]];portConstraint=eastwest;top=0;left=0;right=0;bottom=0;strokeColor=#909090;fontColor=#1A1A1A;rounded=1;" parent="mvUCAgtBvGVkwwr2Q1S8-125" vertex="1">
          <mxGeometry y="210" width="280" height="30" as="geometry" />
        </mxCell>
        <mxCell id="mvUCAgtBvGVkwwr2Q1S8-187" value="" style="shape=partialRectangle;overflow=hidden;connectable=0;fillColor=none;top=0;left=0;bottom=0;right=0;strokeColor=#909090;fontColor=#1A1A1A;rounded=1;" parent="mvUCAgtBvGVkwwr2Q1S8-186" vertex="1">
          <mxGeometry width="40" height="30" as="geometry">
            <mxRectangle width="40" height="30" as="alternateBounds" />
          </mxGeometry>
        </mxCell>
        <mxCell id="mvUCAgtBvGVkwwr2Q1S8-188" value="dtype Enum NOT NULL" style="shape=partialRectangle;overflow=hidden;connectable=0;fillColor=none;top=0;left=0;bottom=0;right=0;align=left;spacingLeft=6;strokeColor=#909090;fontColor=#1A1A1A;rounded=1;" parent="mvUCAgtBvGVkwwr2Q1S8-186" vertex="1">
          <mxGeometry x="40" width="240" height="30" as="geometry">
            <mxRectangle width="240" height="30" as="alternateBounds" />
          </mxGeometry>
        </mxCell>
        <mxCell id="mvUCAgtBvGVkwwr2Q1S8-147" style="edgeStyle=entityRelationEdgeStyle;rounded=1;orthogonalLoop=1;jettySize=auto;elbow=vertical;html=1;labelBackgroundColor=#EEEEEE;fontFamily=Helvetica;fontSize=11;fontColor=#1A1A1A;startArrow=ERone;startFill=0;endArrow=ERzeroToMany;endFill=1;strokeColor=#182E3E;entryX=1;entryY=0.5;entryDx=0;entryDy=0;exitX=0;exitY=0.5;exitDx=0;exitDy=0;" parent="1" source="mvUCAgtBvGVkwwr2Q1S8-93" target="mvUCAgtBvGVkwwr2Q1S8-129" edge="1">
          <mxGeometry relative="1" as="geometry">
            <mxPoint x="1160" y="490" as="sourcePoint" />
          </mxGeometry>
        </mxCell>
        <mxCell id="mvUCAgtBvGVkwwr2Q1S8-185" value="" style="edgeStyle=elbowEdgeStyle;fontSize=12;html=1;endArrow=ERzeroToMany;startArrow=ERmandOne;rounded=1;labelBackgroundColor=#EEEEEE;fontFamily=Helvetica;fontColor=#1A1A1A;strokeColor=#182E3E;exitX=0;exitY=0.5;exitDx=0;exitDy=0;entryX=0;entryY=0.5;entryDx=0;entryDy=0;" parent="1" source="C-vyLk0tnHw3VtMMgP7b-24" target="mvUCAgtBvGVkwwr2Q1S8-132" edge="1">
          <mxGeometry width="100" height="100" relative="1" as="geometry">
            <mxPoint x="970" y="440" as="sourcePoint" />
            <mxPoint x="800" y="540" as="targetPoint" />
            <Array as="points">
              <mxPoint x="480" y="360" />
            </Array>
          </mxGeometry>
        </mxCell>
        <mxCell id="mvUCAgtBvGVkwwr2Q1S8-193" value="Project" style="shape=table;startSize=30;container=1;collapsible=1;childLayout=tableLayout;fixedRows=1;rowLines=0;fontStyle=1;align=center;resizeLast=1;fillColor=#F5AB50;strokeColor=#909090;fontColor=#1A1A1A;rounded=1;sketch=0;hachureGap=4;fontFamily=Helvetica;fontSize=11;" parent="1" vertex="1">
          <mxGeometry x="1520" y="480" width="280" height="190.00000000000045" as="geometry" />
        </mxCell>
        <mxCell id="mvUCAgtBvGVkwwr2Q1S8-194" value="" style="shape=partialRectangle;collapsible=0;dropTarget=0;pointerEvents=0;fillColor=none;points=[[0,0.5],[1,0.5]];portConstraint=eastwest;top=0;left=0;right=0;bottom=1;strokeColor=#909090;fontColor=#1A1A1A;rounded=1;" parent="mvUCAgtBvGVkwwr2Q1S8-193" vertex="1">
          <mxGeometry y="30" width="280" height="30" as="geometry" />
        </mxCell>
        <mxCell id="mvUCAgtBvGVkwwr2Q1S8-195" value="PK" style="shape=partialRectangle;overflow=hidden;connectable=0;fillColor=none;top=0;left=0;bottom=0;right=0;fontStyle=1;strokeColor=#909090;fontColor=#1A1A1A;rounded=1;" parent="mvUCAgtBvGVkwwr2Q1S8-194" vertex="1">
          <mxGeometry width="40" height="30" as="geometry">
            <mxRectangle width="40" height="30" as="alternateBounds" />
          </mxGeometry>
        </mxCell>
        <mxCell id="mvUCAgtBvGVkwwr2Q1S8-196" value="project_id Long NOT NULL " style="shape=partialRectangle;overflow=hidden;connectable=0;fillColor=none;top=0;left=0;bottom=0;right=0;align=left;spacingLeft=6;fontStyle=5;strokeColor=#909090;fontColor=#1A1A1A;rounded=1;" parent="mvUCAgtBvGVkwwr2Q1S8-194" vertex="1">
          <mxGeometry x="40" width="240" height="30" as="geometry">
            <mxRectangle width="240" height="30" as="alternateBounds" />
          </mxGeometry>
        </mxCell>
        <mxCell id="mvUCAgtBvGVkwwr2Q1S8-197" value="" style="shape=partialRectangle;collapsible=0;dropTarget=0;pointerEvents=0;fillColor=none;points=[[0,0.5],[1,0.5]];portConstraint=eastwest;top=0;left=0;right=0;bottom=0;strokeColor=#909090;fontColor=#1A1A1A;rounded=1;" parent="mvUCAgtBvGVkwwr2Q1S8-193" vertex="1">
          <mxGeometry y="60" width="280" height="30" as="geometry" />
        </mxCell>
        <mxCell id="mvUCAgtBvGVkwwr2Q1S8-198" value="" style="shape=partialRectangle;overflow=hidden;connectable=0;fillColor=none;top=0;left=0;bottom=0;right=0;strokeColor=#909090;fontColor=#1A1A1A;rounded=1;" parent="mvUCAgtBvGVkwwr2Q1S8-197" vertex="1">
          <mxGeometry width="40" height="30" as="geometry">
            <mxRectangle width="40" height="30" as="alternateBounds" />
          </mxGeometry>
        </mxCell>
        <mxCell id="mvUCAgtBvGVkwwr2Q1S8-199" value="name varchar(50) NOT NULL" style="shape=partialRectangle;overflow=hidden;connectable=0;fillColor=none;top=0;left=0;bottom=0;right=0;align=left;spacingLeft=6;strokeColor=#909090;fontColor=#1A1A1A;rounded=1;" parent="mvUCAgtBvGVkwwr2Q1S8-197" vertex="1">
          <mxGeometry x="40" width="240" height="30" as="geometry">
            <mxRectangle width="240" height="30" as="alternateBounds" />
          </mxGeometry>
        </mxCell>
        <mxCell id="mvUCAgtBvGVkwwr2Q1S8-200" value="" style="shape=partialRectangle;collapsible=0;dropTarget=0;pointerEvents=0;fillColor=none;points=[[0,0.5],[1,0.5]];portConstraint=eastwest;top=0;left=0;right=0;bottom=0;strokeColor=#909090;fontColor=#1A1A1A;rounded=1;" parent="mvUCAgtBvGVkwwr2Q1S8-193" vertex="1">
          <mxGeometry y="90" width="280" height="30" as="geometry" />
        </mxCell>
        <mxCell id="mvUCAgtBvGVkwwr2Q1S8-201" value="" style="shape=partialRectangle;overflow=hidden;connectable=0;fillColor=none;top=0;left=0;bottom=0;right=0;strokeColor=#909090;fontColor=#1A1A1A;rounded=1;" parent="mvUCAgtBvGVkwwr2Q1S8-200" vertex="1">
          <mxGeometry width="40" height="30" as="geometry">
            <mxRectangle width="40" height="30" as="alternateBounds" />
          </mxGeometry>
        </mxCell>
        <mxCell id="mvUCAgtBvGVkwwr2Q1S8-202" value="manager_id Long NOT NULL" style="shape=partialRectangle;overflow=hidden;connectable=0;fillColor=none;top=0;left=0;bottom=0;right=0;align=left;spacingLeft=6;strokeColor=#909090;fontColor=#1A1A1A;rounded=1;" parent="mvUCAgtBvGVkwwr2Q1S8-200" vertex="1">
          <mxGeometry x="40" width="240" height="30" as="geometry">
            <mxRectangle width="240" height="30" as="alternateBounds" />
          </mxGeometry>
        </mxCell>
        <mxCell id="mvUCAgtBvGVkwwr2Q1S8-206" value="" style="shape=partialRectangle;collapsible=0;dropTarget=0;pointerEvents=0;fillColor=none;points=[[0,0.5],[1,0.5]];portConstraint=eastwest;top=0;left=0;right=0;bottom=0;strokeColor=#909090;fontColor=#1A1A1A;rounded=1;" parent="mvUCAgtBvGVkwwr2Q1S8-193" vertex="1">
          <mxGeometry y="120" width="280" height="30" as="geometry" />
        </mxCell>
        <mxCell id="mvUCAgtBvGVkwwr2Q1S8-207" value="" style="shape=partialRectangle;overflow=hidden;connectable=0;fillColor=none;top=0;left=0;bottom=0;right=0;strokeColor=#909090;fontColor=#1A1A1A;rounded=1;" parent="mvUCAgtBvGVkwwr2Q1S8-206" vertex="1">
          <mxGeometry width="40" height="30" as="geometry">
            <mxRectangle width="40" height="30" as="alternateBounds" />
          </mxGeometry>
        </mxCell>
        <mxCell id="mvUCAgtBvGVkwwr2Q1S8-208" value="generate_date Date NOT NULL" style="shape=partialRectangle;overflow=hidden;connectable=0;fillColor=none;top=0;left=0;bottom=0;right=0;align=left;spacingLeft=6;strokeColor=#909090;fontColor=#1A1A1A;rounded=1;" parent="mvUCAgtBvGVkwwr2Q1S8-206" vertex="1">
          <mxGeometry x="40" width="240" height="30" as="geometry">
            <mxRectangle width="240" height="30" as="alternateBounds" />
          </mxGeometry>
        </mxCell>
        <mxCell id="mvUCAgtBvGVkwwr2Q1S8-231" value="" style="shape=partialRectangle;collapsible=0;dropTarget=0;pointerEvents=0;fillColor=none;points=[[0,0.5],[1,0.5]];portConstraint=eastwest;top=0;left=0;right=0;bottom=0;strokeColor=#909090;fontColor=#1A1A1A;rounded=1;" parent="mvUCAgtBvGVkwwr2Q1S8-193" vertex="1">
          <mxGeometry y="150" width="280" height="30" as="geometry" />
        </mxCell>
        <mxCell id="mvUCAgtBvGVkwwr2Q1S8-232" value="" style="shape=partialRectangle;overflow=hidden;connectable=0;fillColor=none;top=0;left=0;bottom=0;right=0;strokeColor=#909090;fontColor=#1A1A1A;rounded=1;" parent="mvUCAgtBvGVkwwr2Q1S8-231" vertex="1">
          <mxGeometry width="40" height="30" as="geometry">
            <mxRectangle width="40" height="30" as="alternateBounds" />
          </mxGeometry>
        </mxCell>
        <mxCell id="mvUCAgtBvGVkwwr2Q1S8-233" value="last_modified_date Date NOT NULL" style="shape=partialRectangle;overflow=hidden;connectable=0;fillColor=none;top=0;left=0;bottom=0;right=0;align=left;spacingLeft=6;strokeColor=#909090;fontColor=#1A1A1A;rounded=1;" parent="mvUCAgtBvGVkwwr2Q1S8-231" vertex="1">
          <mxGeometry x="40" width="240" height="30" as="geometry">
            <mxRectangle width="240" height="30" as="alternateBounds" />
          </mxGeometry>
        </mxCell>
        <mxCell id="mvUCAgtBvGVkwwr2Q1S8-209" style="edgeStyle=entityRelationEdgeStyle;rounded=1;orthogonalLoop=1;jettySize=auto;html=1;labelBackgroundColor=#EEEEEE;fontFamily=Helvetica;fontSize=11;fontColor=#1A1A1A;startArrow=ERone;startFill=0;endArrow=ERzeroToMany;endFill=1;strokeColor=#182E3E;" parent="1" source="C-vyLk0tnHw3VtMMgP7b-14" target="mvUCAgtBvGVkwwr2Q1S8-193" edge="1">
          <mxGeometry relative="1" as="geometry" />
        </mxCell>
        <mxCell id="mvUCAgtBvGVkwwr2Q1S8-224" style="edgeStyle=entityRelationEdgeStyle;rounded=1;orthogonalLoop=1;jettySize=auto;elbow=vertical;html=1;labelBackgroundColor=#EEEEEE;fontFamily=Helvetica;fontSize=11;fontColor=#1A1A1A;startArrow=ERone;startFill=0;endArrow=ERzeroToMany;endFill=1;strokeColor=#182E3E;entryX=1;entryY=0.5;entryDx=0;entryDy=0;exitX=0;exitY=0.5;exitDx=0;exitDy=0;" parent="1" source="mvUCAgtBvGVkwwr2Q1S8-194" target="mvUCAgtBvGVkwwr2Q1S8-96" edge="1">
          <mxGeometry relative="1" as="geometry">
            <mxPoint x="1019.9999999999995" y="474.9999999999998" as="sourcePoint" />
            <mxPoint x="860" y="504.9999999999998" as="targetPoint" />
          </mxGeometry>
        </mxCell>
        <mxCell id="mvUCAgtBvGVkwwr2Q1S8-260" value="" style="fontSize=12;html=1;endArrow=ERmandOne;startArrow=ERmandOne;rounded=1;labelBackgroundColor=#EEEEEE;fontFamily=Helvetica;fontColor=#1A1A1A;strokeColor=#182E3E;exitX=0;exitY=0.5;exitDx=0;exitDy=0;entryX=1.003;entryY=0.833;entryDx=0;entryDy=0;entryPerimeter=0;edgeStyle=orthogonalEdgeStyle;curved=1;" parent="1" source="mvUCAgtBvGVkwwr2Q1S8-72" target="C-vyLk0tnHw3VtMMgP7b-24" edge="1">
          <mxGeometry width="100" height="100" relative="1" as="geometry">
            <mxPoint x="980" y="430" as="sourcePoint" />
            <mxPoint x="920" y="210" as="targetPoint" />
            <Array as="points">
              <mxPoint x="1000" y="255" />
              <mxPoint x="1000" y="175" />
            </Array>
          </mxGeometry>
        </mxCell>
        <mxCell id="mvUCAgtBvGVkwwr2Q1S8-261" value="" style="edgeStyle=elbowEdgeStyle;fontSize=12;html=1;endArrow=ERmandOne;startArrow=ERmandOne;rounded=1;labelBackgroundColor=#EEEEEE;fontFamily=Helvetica;fontColor=#1A1A1A;strokeColor=#182E3E;entryX=0.75;entryY=1;entryDx=0;entryDy=0;exitX=0.25;exitY=0;exitDx=0;exitDy=0;elbow=vertical;" parent="1" source="mvUCAgtBvGVkwwr2Q1S8-193" target="C-vyLk0tnHw3VtMMgP7b-23" edge="1">
          <mxGeometry width="100" height="100" relative="1" as="geometry">
            <mxPoint x="1510" y="295" as="sourcePoint" />
            <mxPoint x="870" y="202.5" as="targetPoint" />
            <Array as="points">
              <mxPoint x="1200" y="380" />
            </Array>
          </mxGeometry>
        </mxCell>
        <mxCell id="rkv219XESxy7wvaLDVmf-1" value="" style="edgeStyle=entityRelationEdgeStyle;fontSize=12;html=1;endArrow=ERzeroToMany;startArrow=ERmandOne;rounded=1;labelBackgroundColor=#EEEEEE;fontFamily=Helvetica;fontColor=#1A1A1A;strokeColor=#182E3E;elbow=vertical;exitX=0;exitY=0.5;exitDx=0;exitDy=0;entryX=1;entryY=0.5;entryDx=0;entryDy=0;" edge="1" parent="1" source="C-vyLk0tnHw3VtMMgP7b-14" target="C-vyLk0tnHw3VtMMgP7b-9">
          <mxGeometry width="100" height="100" relative="1" as="geometry">
            <mxPoint x="1164" y="230" as="sourcePoint" />
            <mxPoint x="1374" y="230" as="targetPoint" />
          </mxGeometry>
        </mxCell>
      </root>
    </mxGraphModel>
  </diagram>
</mxfile>
